<?xml version="1.0" encoding="UTF-8" standalone="no"?>
<!-- Created with Inkscape (http://www.inkscape.org/) -->

<svg
   xmlns:dc="http://purl.org/dc/elements/1.1/"
   xmlns:cc="http://creativecommons.org/ns#"
   xmlns:rdf="http://www.w3.org/1999/02/22-rdf-syntax-ns#"
   xmlns:svg="http://www.w3.org/2000/svg"
   xmlns="http://www.w3.org/2000/svg"
   xmlns:sodipodi="http://sodipodi.sourceforge.net/DTD/sodipodi-0.dtd"
   xmlns:inkscape="http://www.inkscape.org/namespaces/inkscape"
   width="4.7501307mm"
   height="5.4340415mm"
   viewBox="0 0 16.831172 19.254478"
   id="svg3343"
   version="1.1"
   inkscape:version="0.91 r13725"
   sodipodi:docname="IEC5009_standby.svg">
  <defs
     id="defs3345" />
  <sodipodi:namedview
     id="base"
     pagecolor="#ffffff"
     bordercolor="#666666"
     borderopacity="1.0"
     inkscape:pageopacity="0.0"
     inkscape:pageshadow="2"
     inkscape:zoom="46.22302"
     inkscape:cx="8.4155845"
     inkscape:cy="9.6272404"
     inkscape:document-units="px"
     inkscape:current-layer="layer1"
     showgrid="false"
     fit-margin-top="0"
     fit-margin-left="0"
     fit-margin-right="0"
     fit-margin-bottom="0"
     inkscape:window-width="1920"
     inkscape:window-height="1057"
     inkscape:window-x="-8"
     inkscape:window-y="-8"
     inkscape:window-maximized="1" />
  <metadata
     id="metadata3348">
    <rdf:RDF>
      <cc:Work
         rdf:about="">
        <dc:format>image/svg+xml</dc:format>
        <dc:type
           rdf:resource="http://purl.org/dc/dcmitype/StillImage" />
        <dc:title></dc:title>
      </cc:Work>
    </rdf:RDF>
  </metadata>
  <g
     inkscape:label="Layer 1"
     inkscape:groupmode="layer"
     id="layer1"
     transform="translate(-363.01252,-408.44913)">
    <path
       style="fill:#000000"
       d="m 371.0573,427.69911 c -1.31068,-0.0602 -2.57006,-0.41474 -3.7034,-1.04267 -0.90692,-0.50248 -1.67637,-1.13599 -2.37592,-1.95617 -0.18251,-0.21399 -0.41605,-0.52833 -0.59014,-0.7943 -0.75291,-1.15036 -1.20033,-2.41666 -1.33732,-3.78495 -0.0306,-0.3055 -0.038,-0.46728 -0.038,-0.82834 8e-5,-0.53827 0.0322,-0.92604 0.1183,-1.42848 0.2248,-1.31153 0.76593,-2.56771 1.5607,-3.62299 0.21711,-0.28828 0.456,-0.57054 0.57801,-0.68295 0.1918,-0.1767 0.42691,-0.29657 0.69448,-0.35405 0.0768,-0.0165 0.11508,-0.0192 0.27611,-0.0195 0.16221,-3.2e-4 0.19891,0.002 0.27767,0.0188 0.29576,0.0623 0.5464,0.19771 0.75033,0.40538 0.19669,0.2003 0.3263,0.44593 0.38788,0.73506 0.0161,0.0757 0.019,0.11621 0.0194,0.26762 3.4e-4,0.15187 -0.002,0.19231 -0.0185,0.27187 -0.0575,0.28435 -0.16813,0.49705 -0.38828,0.74687 -0.54409,0.61741 -0.94834,1.3599 -1.173,2.15445 -0.0925,0.32702 -0.15439,0.66517 -0.18827,1.02799 -0.0182,0.19512 -0.0208,0.71318 -0.005,0.90481 0.0639,0.75265 0.24785,1.40919 0.57974,2.06879 0.47362,0.94126 1.22582,1.74342 2.13648,2.27839 0.15026,0.0883 0.16209,0.0947 0.33134,0.17918 0.6482,0.32365 1.30097,0.50526 2.04324,0.56842 0.0775,0.007 0.25581,0.0112 0.43329,0.0112 0.30712,0 0.45001,-0.008 0.69666,-0.0389 1.21694,-0.15271 2.34744,-0.70735 3.21976,-1.57967 0.60079,-0.60079 1.05272,-1.32422 1.32675,-2.1238 0.14583,-0.42552 0.24019,-0.88352 0.28093,-1.36358 0.0163,-0.19163 0.0136,-0.70969 -0.005,-0.90481 -0.0521,-0.5577 -0.16967,-1.05555 -0.36761,-1.55642 -0.23984,-0.60689 -0.56021,-1.1288 -1.01146,-1.64773 -0.16835,-0.1936 -0.25974,-0.34861 -0.32602,-0.55294 -0.0506,-0.156 -0.0634,-0.24641 -0.063,-0.44409 4.3e-4,-0.1968 0.0115,-0.27154 0.0652,-0.44178 0.035,-0.11094 0.12763,-0.29379 0.19974,-0.39437 0.20873,-0.29113 0.52664,-0.49481 0.89266,-0.57191 0.0788,-0.0166 0.11546,-0.0191 0.27766,-0.0188 0.16103,3.2e-4 0.19926,0.003 0.27612,0.0195 0.26756,0.0575 0.50267,0.17735 0.69447,0.35405 0.12191,0.11232 0.36262,0.39669 0.57535,0.67971 0.77929,1.03678 1.31398,2.25627 1.54574,3.52546 0.21718,1.18939 0.18013,2.39778 -0.10918,3.56081 -0.23736,0.95419 -0.62749,1.83181 -1.1824,2.65987 -0.15775,0.23539 -0.37825,0.52896 -0.53791,0.71616 -0.67187,0.78773 -1.41986,1.41144 -2.28299,1.90367 -1.1147,0.6357 -2.33962,1.00109 -3.64341,1.08682 -0.18957,0.0125 -0.69865,0.0172 -0.89206,0.008 z m 0.26762,-6.97558 c -0.18342,-0.0131 -0.35555,-0.0612 -0.53099,-0.14855 -0.40075,-0.19944 -0.67617,-0.56063 -0.77051,-1.01044 l -0.0196,-0.0935 0,-4.88085 0,-4.88085 0.019,-0.0935 c 0.0283,-0.1391 0.0637,-0.24131 0.12977,-0.37381 0.0757,-0.15187 0.15021,-0.25577 0.2679,-0.37345 0.11611,-0.11612 0.22055,-0.19146 0.36921,-0.26634 0.20225,-0.10188 0.36726,-0.14367 0.59895,-0.15171 0.16115,-0.006 0.27849,0.007 0.41732,0.0442 0.46816,0.12597 0.83422,0.46849 0.99251,0.92871 0.0405,0.11771 0.0623,0.22935 0.0725,0.37172 0.0117,0.16242 0.0117,9.41908 0,9.5815 -0.0197,0.27341 -0.0945,0.4939 -0.24349,0.71763 -0.28344,0.42571 -0.7816,0.66631 -1.30259,0.62916 z"
       id="path3338"
       inkscape:connector-curvature="0" />
  </g>
</svg>
