<?xml version="1.0" encoding="UTF-8" standalone="no"?>
<!-- Created with Inkscape (http://www.inkscape.org/) -->

<svg
   xmlns:dc="http://purl.org/dc/elements/1.1/"
   xmlns:cc="http://creativecommons.org/ns#"
   xmlns:rdf="http://www.w3.org/1999/02/22-rdf-syntax-ns#"
   xmlns:svg="http://www.w3.org/2000/svg"
   xmlns="http://www.w3.org/2000/svg"
   xmlns:sodipodi="http://sodipodi.sourceforge.net/DTD/sodipodi-0.dtd"
   xmlns:inkscape="http://www.inkscape.org/namespaces/inkscape"
   width="8.1981478mm"
   height="10.000008mm"
   viewBox="0 0 29.048555 35.433098"
   id="svg3343"
   version="1.1"
   inkscape:version="0.91 r13725"
   sodipodi:docname="mushberry.svg">
  <defs
     id="defs3345" />
  <sodipodi:namedview
     id="base"
     pagecolor="#ffffff"
     bordercolor="#666666"
     borderopacity="1.0"
     inkscape:pageopacity="0.0"
     inkscape:pageshadow="2"
     inkscape:zoom="25.117759"
     inkscape:cx="14.524278"
     inkscape:cy="17.716549"
     inkscape:document-units="px"
     inkscape:current-layer="layer1"
     showgrid="false"
     fit-margin-top="0"
     fit-margin-left="0"
     fit-margin-right="0"
     fit-margin-bottom="0"
     inkscape:window-width="1920"
     inkscape:window-height="1057"
     inkscape:window-x="-8"
     inkscape:window-y="-8"
     inkscape:window-maximized="1" />
  <metadata
     id="metadata3348">
    <rdf:RDF>
      <cc:Work
         rdf:about="">
        <dc:format>image/svg+xml</dc:format>
        <dc:type
           rdf:resource="http://purl.org/dc/dcmitype/StillImage" />
        <dc:title></dc:title>
      </cc:Work>
    </rdf:RDF>
  </metadata>
  <g
     inkscape:label="Layer 1"
     inkscape:groupmode="layer"
     id="layer1"
     transform="translate(-354.04882,-420.35994)">
    <path
       style="fill:#000000"
       d="m 366.1797,455.74868 c 0,-0.0244 -0.1074,-0.0443 -0.2387,-0.0443 -0.2715,0 -0.9236,-0.12631 -1.5108,-0.29262 -0.2192,-0.0621 -0.5082,-0.14368 -0.6422,-0.1813 -0.134,-0.0376 -0.3665,-0.12576 -0.5167,-0.19586 -0.1501,-0.0701 -0.2929,-0.12747 -0.3173,-0.12747 -0.024,0 -0.1706,-0.0694 -0.3249,-0.1543 -0.1543,-0.0849 -0.3603,-0.19721 -0.4578,-0.24966 -0.4034,-0.21719 -0.6152,-0.38398 -1.1517,-0.90695 -0.2869,-0.27972 -0.7307,-0.77719 -0.7307,-0.81909 0,-0.0213 -0.078,-0.16676 -0.1741,-0.32325 -0.096,-0.1565 -0.213,-0.38107 -0.2604,-0.49906 -0.047,-0.118 -0.1385,-0.34409 -0.2022,-0.50243 -0.064,-0.15834 -0.1244,-0.34769 -0.1347,-0.42077 -0.01,-0.0731 -0.05,-0.27239 -0.088,-0.44291 -0.038,-0.17053 -0.07,-0.34991 -0.07,-0.39863 -8e-4,-0.0645 -0.076,-0.12458 -0.2775,-0.22093 -0.152,-0.0728 -0.3178,-0.14489 -0.3684,-0.16021 -0.1103,-0.0334 -1.1468,-0.64279 -1.2256,-0.72062 -0.03,-0.0301 -0.175,-0.13686 -0.3212,-0.2373 -0.2633,-0.18096 -1.261,-1.12295 -1.2637,-1.19328 -8e-4,-0.0201 -0.091,-0.12599 -0.1994,-0.23529 -0.1088,-0.1093 -0.1978,-0.2239 -0.1978,-0.25468 0,-0.0308 -0.02,-0.0559 -0.044,-0.0559 -0.024,0 -0.044,-0.0285 -0.044,-0.0633 0,-0.0348 -0.027,-0.0906 -0.061,-0.12396 -0.033,-0.0334 -0.096,-0.12948 -0.1381,-0.21355 -0.043,-0.0841 -0.1204,-0.21265 -0.1728,-0.28573 -0.053,-0.0731 -0.1228,-0.2126 -0.1563,-0.31004 -0.034,-0.0974 -0.1262,-0.31207 -0.2062,-0.47695 -0.1655,-0.34107 -0.2248,-0.51325 -0.2604,-0.75572 -0.014,-0.0933 -0.065,-0.32253 -0.1143,-0.50935 -0.1657,-0.62922 -0.2272,-1.13044 -0.2516,-2.04748 -0.027,-1.00834 0,-1.26356 0.2512,-2.02233 0.073,-0.22455 0.1411,-0.45376 0.1517,-0.50936 0.011,-0.0556 0.1207,-0.28415 0.2447,-0.50789 0.1241,-0.22374 0.2256,-0.41784 0.2256,-0.43134 0,-0.0221 0.077,-0.12434 0.1993,-0.26302 0.1005,-0.1144 0.2909,-0.38261 0.2716,-0.38261 -0.048,0 0.7634,-0.74848 0.9339,-0.86099 0.1027,-0.0678 0.2456,-0.21572 0.3175,-0.32872 0.137,-0.21522 0.1401,-0.23673 0.2021,-1.40134 0.019,-0.36034 0.1435,-0.87484 0.3534,-1.46203 0.082,-0.22845 0.1374,-0.42645 0.1238,-0.44001 -0.014,-0.0136 0,-0.0246 0.02,-0.0246 0.025,0 0.082,-0.0847 0.1276,-0.18824 0.1539,-0.3503 0.6296,-0.99916 0.9441,-1.28753 0.058,-0.0531 0.1675,-0.15957 0.2436,-0.23655 0.1684,-0.17048 0.9927,-0.76744 1.0625,-0.76949 0.078,-0.002 0.2592,-0.16841 0.2321,-0.21231 -0.013,-0.0215 -0.1493,-0.0831 -0.3023,-0.1368 -0.1531,-0.0537 -0.3264,-0.1214 -0.3853,-0.15037 -0.1137,-0.056 -0.3804,-0.43777 -0.4086,-0.58495 -0.012,-0.0634 -0.077,-0.10265 -0.2319,-0.14102 -0.1183,-0.0293 -0.2492,-0.0841 -0.2909,-0.12181 -0.042,-0.0377 -0.092,-0.0686 -0.1124,-0.0686 -0.072,0 -0.3329,-0.22725 -0.3329,-0.29015 0,-0.0353 -0.02,-0.0642 -0.044,-0.0642 -0.024,0 -0.04,-0.0149 -0.035,-0.0332 0.01,-0.0183 -0.022,-0.093 -0.06,-0.1661 -0.038,-0.0731 -0.081,-0.1827 -0.096,-0.2436 -0.016,-0.0656 -0.09,-0.14483 -0.1819,-0.19444 -0.086,-0.046 -0.2631,-0.18556 -0.3944,-0.31004 -0.1905,-0.1804 -0.2537,-0.27715 -0.3115,-0.47675 -0.04,-0.13773 -0.073,-0.30976 -0.073,-0.3823 0,-0.0993 -0.039,-0.16183 -0.1589,-0.25308 -0.087,-0.0667 -0.2313,-0.23346 -0.3197,-0.37066 -0.1408,-0.21843 -0.1616,-0.28635 -0.1675,-0.54616 -0.01,-0.26549 -0.025,-0.32372 -0.1786,-0.55344 -0.2506,-0.37429 -0.2747,-0.45153 -0.2606,-0.83549 0.011,-0.29459 0,-0.37032 -0.085,-0.50423 -0.1326,-0.21287 -0.2196,-0.54705 -0.1881,-0.72239 0.052,-0.28958 0.07,-0.34123 0.1665,-0.47136 l 0.098,-0.13265 -0.095,-0.22105 c -0.1204,-0.27969 -0.1207,-0.52749 0,-0.80557 0.078,-0.18049 0.1407,-0.24706 0.3606,-0.38068 0.229,-0.1391 0.3141,-0.1649 0.6035,-0.18296 0.3075,-0.0192 0.3518,-0.0343 0.5066,-0.1732 0.276,-0.24754 0.5218,-0.33145 1.0462,-0.35716 0.4206,-0.0206 0.479,-0.0343 0.638,-0.1495 0.2239,-0.16216 0.4565,-0.2238 0.7929,-0.21008 0.2376,0.01 0.281,-0.002 0.3839,-0.10502 0.064,-0.0638 0.1716,-0.13713 0.2397,-0.16301 0.1853,-0.0705 0.8024,-0.0584 0.9885,0.0194 0.1781,0.0744 0.3253,0.0866 0.3253,0.0269 0,-0.0217 0.05,-0.052 0.1108,-0.0673 0.061,-0.0153 0.1107,-0.0473 0.1107,-0.0712 0,-0.0505 0.6937,-0.0604 0.716,-0.0102 0.024,0.0545 0.4949,0.24574 0.5906,0.23998 0.049,-0.003 0.2281,-0.0177 0.3986,-0.0328 0.2965,-0.0263 0.3236,-0.0203 0.6201,0.13615 0.2884,0.1522 0.3349,0.16316 0.6669,0.15719 0.4562,-0.008 0.679,0.0833 1.0108,0.41505 0.2458,0.2458 0.2484,0.24708 0.5167,0.24708 0.2256,0 0.2961,0.0199 0.431,0.1218 0.224,0.16913 0.9401,0.85679 0.9401,0.90279 0,0.0338 0.1167,0.18566 0.2474,0.32182 0.077,0.0798 0.4812,0.86451 0.5961,1.15606 0.058,0.14616 0.1289,0.31308 0.1586,0.37092 0.03,0.0578 0.042,0.13585 0.028,0.17336 -0.018,0.0465 -0.01,0.0574 0.029,0.0343 0.03,-0.0186 0.045,-0.0595 0.033,-0.0908 -0.012,-0.0313 0,-0.094 0.032,-0.13946 0.03,-0.0454 0.1007,-0.20219 0.1583,-0.34835 0.157,-0.39865 0.5313,-1.08682 0.6738,-1.23886 0.069,-0.0738 0.1259,-0.15625 0.126,-0.18323 2e-4,-0.0551 0.735,-0.77061 0.9843,-0.95858 0.1351,-0.10185 0.2058,-0.1218 0.4313,-0.1218 0.2685,0 0.2707,-0.001 0.5185,-0.24884 0.3386,-0.3386 0.54,-0.4218 1.0009,-0.41347 0.3414,0.006 0.3849,-0.004 0.675,-0.15701 0.2965,-0.15645 0.3236,-0.1624 0.6201,-0.13615 0.1705,0.0151 0.3499,0.0299 0.3986,0.0328 0.096,0.006 0.5663,-0.18547 0.5905,-0.23998 0.022,-0.0502 0.7161,-0.0403 0.7161,0.0102 0,0.0239 0.05,0.056 0.1107,0.0712 0.061,0.0153 0.1107,0.0456 0.1107,0.0673 0,0.0597 0.1473,0.0475 0.3254,-0.0269 0.1861,-0.0778 0.8032,-0.0899 0.9885,-0.0194 0.068,0.0259 0.1759,0.0992 0.2397,0.16301 0.1029,0.10284 0.1463,0.11472 0.3839,0.10502 0.3368,-0.0137 0.569,0.0479 0.7941,0.21098 0.1611,0.11672 0.2159,0.12945 0.638,0.14808 0.5224,0.0231 0.7642,0.10584 1.045,0.35768 0.1548,0.13888 0.1991,0.15402 0.5065,0.1732 0.2894,0.0181 0.3746,0.0439 0.6035,0.18296 0.22,0.13362 0.2831,0.20019 0.3607,0.38068 0.1196,0.27808 0.1193,0.52588 -10e-4,0.80557 l -0.095,0.22105 0.098,0.13265 c 0.096,0.13013 0.1145,0.18178 0.1665,0.47136 0.032,0.17534 -0.055,0.50952 -0.1881,0.72239 -0.083,0.1341 -0.096,0.20952 -0.085,0.50622 0.012,0.31612 -0.024,0.49394 -0.1229,0.62065 -0.2352,0.30022 -0.31,0.48145 -0.3164,0.7665 -0.01,0.25957 -0.027,0.32757 -0.1675,0.54595 -0.088,0.1372 -0.2323,0.304 -0.3197,0.37066 -0.1196,0.0913 -0.1589,0.15381 -0.1589,0.25308 0,0.0725 -0.032,0.24268 -0.072,0.3781 -0.056,0.19369 -0.1227,0.29542 -0.3115,0.47678 -0.132,0.1268 -0.3099,0.26821 -0.3954,0.31423 -0.092,0.0496 -0.1662,0.1288 -0.1819,0.19442 -0.014,0.0609 -0.058,0.17052 -0.096,0.2436 -0.038,0.0731 -0.065,0.14783 -0.06,0.1661 0.01,0.0183 -0.011,0.0332 -0.035,0.0332 -0.024,0 -0.044,0.0289 -0.044,0.0642 0,0.0629 -0.2607,0.29015 -0.3329,0.29015 -0.02,0 -0.071,0.0309 -0.1124,0.0686 -0.042,0.0377 -0.1726,0.0925 -0.2909,0.12181 -0.1551,0.0384 -0.2197,0.0777 -0.2319,0.14102 -0.028,0.14718 -0.2949,0.52899 -0.4086,0.58495 -0.059,0.029 -0.2322,0.0966 -0.3852,0.15037 -0.153,0.0537 -0.2896,0.11606 -0.3035,0.13851 -0.03,0.0485 0.087,0.14629 0.273,0.22865 0.1676,0.0742 0.8296,0.56565 1.047,0.77737 0.4951,0.48218 0.5804,0.57801 0.805,0.90404 0.1147,0.16655 0.2604,0.40572 0.3239,0.5315 0.063,0.12579 0.1343,0.24089 0.1576,0.2558 0.023,0.0149 0.04,0.0448 0.037,0.0664 0,0.0216 0.074,0.27852 0.1703,0.57084 0.2133,0.64522 0.3062,1.0943 0.3119,1.50592 0.011,0.77105 0.039,0.95342 0.1804,1.17449 0.074,0.11597 0.2194,0.26613 0.3221,0.33369 0.2498,0.1643 0.7983,0.6977 0.9992,0.97168 0.089,0.12155 0.1919,0.25465 0.2284,0.29579 0.126,0.14184 0.1772,0.21037 0.1772,0.2372 0,0.0148 0.1015,0.20997 0.2255,0.43371 0.124,0.22374 0.2342,0.45229 0.2447,0.50789 0.011,0.0556 0.079,0.28481 0.1517,0.50936 0.2463,0.75877 0.278,1.01399 0.2512,2.02233 -0.024,0.91704 -0.086,1.41826 -0.2515,2.04748 -0.049,0.18682 -0.1007,0.41603 -0.1144,0.50935 -0.036,0.24247 -0.095,0.41465 -0.2603,0.75572 -0.08,0.16488 -0.1728,0.37951 -0.2063,0.47695 -0.033,0.0974 -0.1038,0.23696 -0.1562,0.31004 -0.053,0.0731 -0.1303,0.20166 -0.1728,0.28573 -0.043,0.0841 -0.1048,0.18017 -0.1381,0.21355 -0.033,0.0334 -0.061,0.0892 -0.061,0.12396 0,0.0348 -0.02,0.0633 -0.044,0.0633 -0.024,0 -0.044,0.0256 -0.044,0.0569 0,0.0313 -0.099,0.15587 -0.2205,0.27682 -0.1213,0.12095 -0.221,0.2363 -0.2215,0.25633 0,0.0646 -1.0177,1.01725 -1.255,1.17672 -0.1263,0.0849 -0.2523,0.17681 -0.2799,0.20418 -0.074,0.0732 -1.1926,0.73082 -1.2433,0.73082 -0.024,0 -0.1635,0.0601 -0.3104,0.13351 l -0.2672,0.13351 -0.031,0.27619 c -0.05,0.44546 -0.2996,1.33028 -0.411,1.4582 -0.036,0.0411 -0.052,0.0959 -0.036,0.1218 0.016,0.0259 0.01,0.0471 -0.025,0.0471 -0.03,0 -0.041,0.0133 -0.025,0.0295 0.035,0.0348 -0.2566,0.57961 -0.3626,0.67791 -0.04,0.0372 -0.08,0.0975 -0.088,0.134 -0.038,0.17099 -0.9537,1.11059 -1.2798,1.31319 -0.067,0.042 -0.1626,0.11097 -0.2114,0.15334 -0.1078,0.0938 -0.6347,0.39381 -0.6916,0.39381 -0.023,0 -0.1153,0.0466 -0.2062,0.10365 -0.091,0.057 -0.225,0.11834 -0.298,0.13632 -0.073,0.018 -0.2292,0.081 -0.3469,0.13996 -0.1178,0.059 -0.2446,0.10728 -0.282,0.10728 -0.037,0 -0.1603,0.0297 -0.2732,0.0661 -0.6953,0.22376 -1.9434,0.46545 -2.4035,0.46545 -0.1733,0 -0.3042,0.0191 -0.3042,0.0443 0,0.0289 -0.7603,0.0443 -2.1924,0.0443 -1.4321,0 -2.1925,-0.0154 -2.1925,-0.0443 z m 4.2077,-0.48968 c 1.0289,-0.0711 1.4742,-0.1391 2.3475,-0.35819 1.2821,-0.32167 2.3445,-0.87642 3.1163,-1.6272 0.6477,-0.63004 1.1112,-1.41965 1.3374,-2.27831 0.063,-0.23922 0.1263,-0.4784 0.1405,-0.5315 0.059,-0.21879 0.05,-1.64611 -0.012,-1.88339 -0.1291,-0.49685 -0.8257,-1.07191 -1.941,-1.60243 -1.6607,-0.78992 -3.047,-1.26272 -4.4128,-1.50488 -2.1832,-0.38711 -4.2243,-0.28669 -6.3228,0.31107 -1.8885,0.53795 -3.5198,1.38532 -4.6554,2.41824 l -0.2375,0.21602 0,0.59794 c 0,0.79573 0.029,1.02803 0.2069,1.78679 0.2296,0.98108 0.8474,2.01485 1.5818,2.64691 0.7656,0.65894 1.8893,1.22925 2.9144,1.47922 0.1584,0.0386 0.3178,0.0821 0.3544,0.0966 0.037,0.0145 0.096,0.031 0.1328,0.0366 0.036,0.006 0.2459,0.0415 0.4651,0.0796 0.4622,0.0805 1.2372,0.16143 1.6831,0.17577 0.6357,0.0204 2.6796,-0.0161 3.2997,-0.0589 z m -4.9606,-3.79359 c -0.1012,-0.037 -0.2673,-0.19909 -0.3326,-0.32453 -0.1419,-0.27256 -0.2063,-0.77579 -0.2302,-1.79857 -0.044,-1.87383 0.1275,-2.55662 0.6567,-2.61627 0.18,-0.0203 0.2191,-0.007 0.3634,0.11924 0.2376,0.20855 0.3325,0.56096 0.3899,1.44675 0.052,0.79789 -0.01,2.08618 -0.1101,2.47576 -0.1522,0.56753 -0.4143,0.81563 -0.7371,0.69762 z m 0.5332,-2.99162 0.1976,-0.0996 -0.013,-0.26575 c -0.01,-0.14616 -0.032,-0.36541 -0.056,-0.48721 -0.024,-0.1218 -0.051,-0.2653 -0.061,-0.31889 -0.028,-0.14983 -0.1997,-0.35607 -0.3458,-0.41656 -0.1109,-0.0459 -0.1538,-0.0425 -0.2736,0.0221 -0.078,0.0421 -0.1775,0.1364 -0.2207,0.20957 -0.092,0.15529 -0.1994,0.71306 -0.2016,1.04483 0,0.19326 0.014,0.23946 0.095,0.28293 0.2869,0.15351 0.6106,0.16407 0.8791,0.0287 z m 5.3761,2.94167 c -0.2784,-0.17443 -0.4001,-0.60331 -0.4652,-1.63905 -0.034,-0.54388 -0.035,-0.97709 0,-1.48438 0.057,-0.88579 0.1523,-1.2382 0.3898,-1.44675 0.1443,-0.1267 0.1834,-0.13953 0.3635,-0.11924 0.5291,0.0596 0.7005,0.74244 0.6567,2.61627 -0.024,1.02278 -0.088,1.52601 -0.2302,1.79857 -0.1595,0.30628 -0.4707,0.42619 -0.7126,0.27458 z m 0.6569,-2.9499 c 0.1911,-0.0913 0.1988,-0.13792 0.1184,-0.71596 -0.06,-0.43468 -0.1478,-0.65229 -0.3196,-0.79688 -0.1425,-0.11993 -0.3248,-0.12375 -0.4622,-0.01 -0.076,0.0631 -0.2336,0.36438 -0.2589,0.49509 -0.058,0.30002 -0.1124,0.83721 -0.09,0.89471 0.014,0.0369 0.1108,0.10688 0.2147,0.15541 0.226,0.10554 0.5488,0.0964 0.7979,-0.0227 z m -14.8171,-3.37649 c 0.3342,-0.15856 0.7245,-0.89488 0.994,-1.8749 0.3025,-1.10015 0.4341,-2.04499 0.4349,-3.12255 7e-4,-1.03597 -0.1384,-1.62515 -0.4503,-1.9069 -0.1586,-0.14332 -0.2007,-0.16004 -0.3515,-0.13981 -0.419,0.0562 -1.3909,0.9685 -1.7989,1.6885 -0.7438,1.31272 -0.717,3.15959 0.065,4.49698 0.1968,0.33645 0.7524,0.93261 0.8692,0.93261 0.045,0 0.1517,-0.0333 0.2374,-0.0739 z m 23.2809,-0.18572 c 0.741,-0.68772 1.2288,-1.92948 1.2295,-3.12976 2e-4,-0.24421 -0.021,-0.53857 -0.047,-0.65412 -0.026,-0.11556 -0.058,-0.28447 -0.072,-0.37537 -0.037,-0.24389 -0.3141,-0.91505 -0.5226,-1.26639 -0.241,-0.40604 -0.7485,-0.94186 -1.2028,-1.26981 -0.4447,-0.32106 -0.5621,-0.35301 -0.7732,-0.21055 -0.3408,0.22985 -0.4848,0.7009 -0.5184,1.69564 -0.077,2.26645 0.6496,4.9108 1.4574,5.30705 0.1726,0.0847 0.2782,0.062 0.4491,-0.0967 z m -16.1152,-0.93372 c 1.7354,-0.48493 3.216,-2.15702 3.5252,-3.98098 0.057,-0.33329 0.053,-1.19908 -0.01,-1.52533 -0.1985,-1.09505 -0.8487,-1.98706 -1.792,-2.4587 -0.4803,-0.24018 -0.764,-0.31866 -1.2653,-0.35013 -2.0988,-0.13172 -4.1295,1.51933 -4.7221,3.83919 -0.034,0.13398 -0.073,0.53261 -0.086,0.88583 -0.022,0.5882 -0.014,0.67876 0.089,1.07644 0.3196,1.23539 1.1307,2.13699 2.2384,2.48824 0.4647,0.14737 0.4878,0.1502 1.1111,0.13657 0.4085,-0.009 0.6465,-0.0381 0.908,-0.11113 z m 10.7629,-0.20431 c 1.4361,-0.41459 2.3462,-1.63541 2.4415,-3.27508 0.1313,-2.26036 -1.6901,-4.5783 -3.9317,-5.00352 -1.6923,-0.32102 -3.3068,0.6563 -3.839,2.32388 -0.4746,1.48712 0.013,3.29939 1.2486,4.64131 0.3997,0.43411 1.1062,0.91431 1.6667,1.13287 0.9251,0.36073 1.6118,0.41209 2.4139,0.18054 z m 3.6983,-7.01772 c 0.1197,-0.11968 0.1188,-0.56742 0,-1.26764 -0.327,-1.8863 -1.6037,-3.24439 -3.4616,-3.68203 -0.4251,-0.10014 -0.6025,-0.11803 -1.1864,-0.11968 -0.715,-0.002 -1.1691,0.0636 -1.2119,0.17517 -0.031,0.0809 0.1453,0.40842 0.4023,0.7475 0.4567,0.60246 2.0943,2.1351 3.1804,2.97646 0.6425,0.49776 1.5329,1.05074 1.9242,1.19496 0.2156,0.0795 0.2541,0.0768 0.3556,-0.0247 z m -19.7701,-0.24508 c 0.3271,-0.15736 1.1276,-0.6739 1.467,-0.94673 1.2516,-1.00602 1.3507,-1.09272 2.2833,-1.99718 0.8579,-0.83214 1.4036,-1.5256 1.4036,-1.78383 0,-0.14548 -0.2091,-0.17944 -1.1294,-0.18336 -0.8386,-0.004 -0.9105,0.003 -1.3479,0.12086 -1.0468,0.28236 -1.7608,0.72135 -2.3991,1.47499 -0.6461,0.76274 -1.0406,1.8682 -1.0705,2.99916 -0.01,0.35947 0,0.39769 0.09,0.47281 0.1214,0.0988 0.2151,0.0779 0.7028,-0.15672 z m 10.9234,-1.329 c 1.0316,-0.18045 1.6642,-0.45431 2.1408,-0.92684 0.3671,-0.36391 0.4841,-0.62818 0.4516,-1.01982 -0.068,-0.8155 -1.1381,-1.7459 -2.5154,-2.18634 -0.3003,-0.096 -0.3555,-0.10813 -0.8637,-0.18936 -0.7169,-0.11459 -1.7144,0.0813 -2.5251,0.49591 -0.675,0.34518 -1.357,0.95243 -1.581,1.40766 -0.4446,0.9035 0.757,2.03815 2.5116,2.37169 0.1949,0.037 0.3942,0.0758 0.4429,0.0862 0.2398,0.051 1.5779,0.024 1.9383,-0.0391 z m -6.3674,-4.66901 c 0.7407,-0.18964 1.3459,-0.49115 1.7488,-0.87119 0.3403,-0.32106 0.4405,-0.46302 0.6524,-0.92456 l 0.1425,-0.31012 -0.2975,-0.30245 c -0.1636,-0.16635 -0.4569,-0.43533 -0.6517,-0.59774 -0.1949,-0.1624 -0.4039,-0.34011 -0.4644,-0.39491 -0.061,-0.0548 -0.216,-0.17448 -0.3456,-0.26595 -0.1295,-0.0915 -0.359,-0.25674 -0.51,-0.36727 -0.151,-0.11052 -0.4738,-0.32731 -0.7174,-0.48176 -0.2437,-0.15445 -0.5127,-0.3258 -0.598,-0.38078 -0.3276,-0.21127 -0.6475,-0.40658 -0.7751,-0.47318 -0.073,-0.0381 -0.463,-0.25661 -0.8666,-0.48546 -0.4035,-0.22884 -0.8366,-0.46495 -0.9624,-0.52468 -0.2533,-0.12026 -0.3403,-0.22741 -0.1578,-0.19431 0.1323,0.024 1.2452,0.43243 1.4996,0.55036 0.097,0.0452 0.4163,0.18559 0.7087,0.31204 0.8416,0.36409 1.5039,0.70725 2.5467,1.31967 0.5814,0.34138 1.3308,0.85995 1.9177,1.32696 l 0.2941,0.23404 0.2118,-0.12311 c 0.2898,-0.16844 0.6454,-0.53154 0.7776,-0.79396 0.4121,-0.81807 0.1929,-1.92562 -0.631,-3.18769 -0.2234,-0.34215 -0.7075,-0.94171 -0.7646,-0.9469 -0.018,-0.002 -0.056,0.0884 -0.084,0.20012 -0.028,0.1117 -0.08,0.21426 -0.1159,0.22791 -0.043,0.0163 -0.2596,-0.17843 -0.6337,-0.56849 l -0.5691,-0.59332 0,0.22763 c 0,0.15731 -0.029,0.25992 -0.088,0.33219 l -0.086,0.10456 -0.3458,-0.33625 c -0.3616,-0.35148 -0.575,-0.52744 -0.6398,-0.52744 -0.021,0 -0.038,0.0786 -0.038,0.1747 0,0.11766 -0.033,0.21278 -0.1003,0.29133 l -0.1004,0.11664 -0.3195,-0.26046 c -0.3142,-0.25609 -0.8971,-0.61273 -0.8971,-0.54889 0,0.0179 0.029,0.0713 0.065,0.11856 0.081,0.10687 0.086,0.33137 0.011,0.43461 -0.053,0.0722 -0.079,0.0649 -0.3654,-0.10273 -0.2963,-0.17321 -1.1137,-0.4743 -1.1605,-0.42749 -0.012,0.0124 0.04,0.0848 0.1157,0.16086 0.1009,0.10097 0.1382,0.17917 0.1382,0.28988 0,0.1307 -0.015,0.15162 -0.1068,0.15162 -0.059,0 -0.2132,-0.0402 -0.3432,-0.0892 -0.2285,-0.0862 -1.0197,-0.27037 -1.0473,-0.24374 -0.01,0.007 0.037,0.068 0.1,0.13519 0.1281,0.13814 0.1561,0.39328 0.048,0.43482 -0.036,0.0138 -0.2103,-0.0146 -0.3875,-0.063 -0.4861,-0.13286 -0.8705,-0.18697 -1.1347,-0.1597 -0.1308,0.0135 -0.2493,0.0361 -0.2635,0.0503 -0.014,0.0142 0.061,0.11465 0.168,0.22325 0.1065,0.1086 0.1786,0.21261 0.1601,0.23113 -0.019,0.0185 -0.391,0.0411 -0.8277,0.0502 -0.4367,0.009 -0.7941,0.0217 -0.7941,0.0281 0,0.006 0.091,0.16295 0.2022,0.34792 0.2089,0.34761 0.3736,0.75308 0.3736,0.91978 0,0.0912 -0.015,0.0946 -0.3322,0.0742 -0.1827,-0.0117 -0.3321,-0.006 -0.3321,0.0123 0,0.0737 0.3608,0.48362 0.6589,0.74855 0.1735,0.15421 0.3155,0.31644 0.3155,0.36051 0,0.0981 -0.2248,0.14956 -0.5122,0.11717 -0.127,-0.0143 -0.1965,-0.005 -0.1965,0.0267 0,0.0268 0.2392,0.28305 0.5315,0.56933 0.2923,0.28629 0.5315,0.53879 0.5315,0.5611 0,0.063 -0.1199,0.0943 -0.3616,0.0943 -0.1574,0 -0.2163,0.0161 -0.2035,0.0554 0.024,0.0737 0.6065,0.56173 0.9516,0.79728 0.1517,0.10351 0.2762,0.20277 0.2768,0.22058 0,0.0469 -0.213,0.0959 -0.4306,0.0984 -0.1035,10e-4 -0.1882,0.0147 -0.1883,0.03 -4e-4,0.0928 0.5658,0.45673 1.372,0.88163 0.085,0.0447 0.1603,0.10018 0.1681,0.12338 0.019,0.0559 -0.2316,0.14084 -0.4148,0.14084 -0.2277,0 -0.2084,0.0562 0.064,0.185 0.4016,0.19015 0.537,0.24259 0.9591,0.37147 0.2193,0.0669 0.4055,0.12707 0.4138,0.13361 0.056,0.0439 -0.07,0.20268 -0.2188,0.27631 l -0.178,0.088 0.1465,0.048 c 0.222,0.0727 0.5538,0.12886 1.073,0.18168 0.2583,0.0263 0.4993,0.0592 0.5356,0.0731 0.1337,0.0513 0.062,0.23126 -0.1554,0.3876 -0.108,0.0778 -0.093,0.0792 0.5979,0.0559 0.5951,-0.02 0.7939,-0.0457 1.2402,-0.15992 z m 12.2193,0.0783 c -0.07,-0.0532 -0.1311,-0.0981 -0.1352,-0.0997 0,-0.002 -0.021,-0.0558 -0.037,-0.12046 -0.037,-0.1459 -0.02,-0.15167 0.6158,-0.21503 0.4385,-0.0437 0.9256,-0.13347 1.1118,-0.2049 0.054,-0.0206 0.027,-0.0478 -0.1037,-0.10633 -0.098,-0.0438 -0.1892,-0.12127 -0.2062,-0.17467 -0.017,-0.0528 -0.024,-0.1001 -0.015,-0.1051 0.01,-0.005 0.2244,-0.0757 0.4802,-0.15713 0.5554,-0.17678 1.1591,-0.44341 1.1259,-0.49721 -0.013,-0.0212 -0.097,-0.0389 -0.1873,-0.0392 -0.1747,-7e-4 -0.3759,-0.0827 -0.3736,-0.15237 7e-4,-0.0233 0.2226,-0.1569 0.4931,-0.29696 0.4698,-0.2433 1.0651,-0.64137 1.067,-0.71351 5e-4,-0.0187 -0.044,-0.0234 -0.099,-0.0103 -0.134,0.0319 -0.4873,-0.0334 -0.5075,-0.0939 -0.01,-0.0266 0.159,-0.17523 0.373,-0.33021 0.4127,-0.29883 0.8099,-0.64772 0.8099,-0.71132 0,-0.021 -0.1046,-0.0385 -0.2325,-0.0389 -0.2382,-6.9e-4 -0.3668,-0.0459 -0.3376,-0.11863 0.01,-0.0225 0.166,-0.17665 0.3487,-0.34247 0.3065,-0.27818 0.7086,-0.72134 0.7086,-0.78089 0,-0.0139 -0.1168,-0.0168 -0.2595,-0.007 -0.2512,0.0182 -0.4491,-0.0365 -0.4491,-0.12389 0,-0.0227 0.2066,-0.24619 0.4591,-0.49672 0.2525,-0.25053 0.4808,-0.49731 0.5073,-0.54838 0.047,-0.091 0.042,-0.0925 -0.276,-0.0721 -0.2118,0.0136 -0.3347,0.004 -0.3547,-0.0286 -0.056,-0.0907 0.1149,-0.57225 0.3337,-0.94009 0.119,-0.20007 0.2164,-0.3687 0.2164,-0.37473 0,-0.006 -0.3472,-0.0179 -0.7715,-0.0264 -0.4243,-0.009 -0.7868,-0.0308 -0.8055,-0.0496 -0.019,-0.0188 0.053,-0.123 0.1597,-0.2316 0.1065,-0.1086 0.1784,-0.21282 0.1596,-0.2316 -0.019,-0.0188 -0.2368,-0.0333 -0.4845,-0.0323 -0.3331,10e-4 -0.5315,0.027 -0.7628,0.0983 -0.1719,0.053 -0.3811,0.10204 -0.465,0.10886 -0.1455,0.0118 -0.1532,0.005 -0.1658,-0.1449 -0.01,-0.11963 0.014,-0.1871 0.1021,-0.28175 0.063,-0.0684 0.1093,-0.13022 0.1018,-0.13728 -0.025,-0.024 -0.7651,0.15121 -1.0986,0.26017 -0.2414,0.0789 -0.3411,0.0945 -0.3647,0.0573 -0.067,-0.1059 -0.03,-0.25251 0.1048,-0.40548 0.076,-0.0869 0.1297,-0.16714 0.1186,-0.17824 -0.043,-0.0433 -0.8274,0.24562 -1.1211,0.41317 -0.2839,0.16206 -0.3165,0.17114 -0.3875,0.10805 -0.095,-0.0848 -0.099,-0.2391 -0.01,-0.41167 0.081,-0.15605 0.071,-0.15805 -0.169,-0.0357 -0.212,0.10796 -0.3952,0.23747 -0.7285,0.51502 -0.1276,0.10624 -0.2523,0.1806 -0.2771,0.16525 -0.098,-0.0607 -0.1864,-0.30444 -0.1628,-0.44991 0.013,-0.0815 0.012,-0.14817 0,-0.14817 -0.059,0 -0.5168,0.38288 -0.7116,0.59547 -0.274,0.29912 -0.2974,0.31033 -0.4054,0.19441 -0.063,-0.0675 -0.091,-0.1573 -0.091,-0.28888 0,-0.10503 -0.017,-0.19096 -0.038,-0.19096 -0.04,0 -0.5509,0.52475 -0.9055,0.93046 -0.2023,0.23151 -0.2157,0.23915 -0.2762,0.15806 -0.035,-0.0469 -0.076,-0.15172 -0.091,-0.23302 -0.015,-0.0813 -0.044,-0.15768 -0.063,-0.16974 -0.093,-0.0576 -0.8825,0.99928 -1.1685,1.5647 -0.3527,0.69737 -0.523,1.48533 -0.4322,1.99976 0.097,0.54771 0.4767,1.07345 0.9697,1.34181 l 0.2191,0.11926 0.2841,-0.23214 c 0.4158,-0.33985 1.8898,-1.36003 1.965,-1.36003 0.01,0 0.1631,-0.0862 0.3417,-0.19148 0.5695,-0.33576 1.4131,-0.76672 2.0521,-1.04831 0.3411,-0.15029 0.6845,-0.30229 0.7631,-0.33777 0.079,-0.0355 0.2236,-0.0929 0.3221,-0.12767 0.099,-0.0347 0.2434,-0.0918 0.322,-0.1267 0.1977,-0.0878 0.7866,-0.29244 0.9045,-0.3143 0.1709,-0.0317 0.07,0.0801 -0.1973,0.21777 -0.1397,0.0721 -0.5574,0.30132 -0.928,0.50936 -0.3706,0.20803 -0.7294,0.40845 -0.7972,0.44537 -0.5081,0.2764 -1.7886,1.10189 -2.5152,1.62141 -0.4098,0.29304 -1.3624,1.10287 -1.6777,1.42633 -0.2476,0.25402 -0.2479,0.26484 -0.018,0.75313 0.1013,0.21467 0.2382,0.39434 0.501,0.65739 0.3069,0.3072 0.4314,0.39583 0.8223,0.58576 0.7269,0.35321 1.4882,0.52123 2.4043,0.53063 l 0.5264,0.005 -0.1278,-0.0968 z"
       id="path5570"
       inkscape:connector-curvature="0" />
  </g>
</svg>
