<?xml version="1.0" encoding="UTF-8" standalone="no"?>
<!-- Created with Inkscape (http://www.inkscape.org/) -->

<svg
   xmlns:dc="http://purl.org/dc/elements/1.1/"
   xmlns:cc="http://creativecommons.org/ns#"
   xmlns:rdf="http://www.w3.org/1999/02/22-rdf-syntax-ns#"
   xmlns:svg="http://www.w3.org/2000/svg"
   xmlns="http://www.w3.org/2000/svg"
   xmlns:sodipodi="http://sodipodi.sourceforge.net/DTD/sodipodi-0.dtd"
   xmlns:inkscape="http://www.inkscape.org/namespaces/inkscape"
   version="1.0"
   width="9.0001059mm"
   height="3.9999974mm"
   viewBox="0 0 31.890138 14.17322"
   id="Layer_1"
   xml:space="preserve"
   inkscape:version="0.91 r13725"
   sodipodi:docname="USB.svg"><metadata
     id="metadata7"><rdf:RDF><cc:Work
         rdf:about=""><dc:format>image/svg+xml</dc:format><dc:type
           rdf:resource="http://purl.org/dc/dcmitype/StillImage" /><dc:title></dc:title></cc:Work></rdf:RDF></metadata><sodipodi:namedview
     pagecolor="#ffffff"
     bordercolor="#666666"
     borderopacity="1"
     objecttolerance="10"
     gridtolerance="10"
     guidetolerance="10"
     inkscape:pageopacity="0"
     inkscape:pageshadow="2"
     inkscape:window-width="1920"
     inkscape:window-height="1057"
     id="namedview5"
     showgrid="false"
     units="mm"
     fit-margin-top="0"
     fit-margin-left="0"
     fit-margin-right="0"
     fit-margin-bottom="0"
     inkscape:zoom="55.346263"
     inkscape:cx="15.945069"
     inkscape:cy="7.0866095"
     inkscape:window-x="-8"
     inkscape:window-y="-8"
     inkscape:window-maximized="1"
     inkscape:current-layer="Layer_1" /><defs
     id="defs1337" /><path
     d="m 31.890089,7.08712 -3.5426,-2.04583 0,1.45939 -18.10721,0 3.52568,-3.7249 c 0.30005,-0.24051 0.69263,-0.40923 1.09647,-0.41857 1.6337,0 2.60387,-4.3e-4 2.96098,-10e-4 0.24207,0.68965 0.89229,1.18745 1.66528,1.18745 0.97789,0 1.77148,-0.79352 1.77148,-1.77176 0,-0.97867 -0.79352,-1.7719 -1.77148,-1.7719 -0.77299,0 -1.42321,0.4975 -1.66528,1.1866 l -2.92628,-5e-4 c -0.7931,0 -1.62415,0.43514 -2.15309,0.94525 0.0144,-0.0152 0.0294,-0.0313 -8.5e-4,2.8e-4 -0.0112,0.0126 -3.7406295,3.95161 -3.7406295,3.95161 -0.29941,0.24015 -0.69178,0.4078 -1.09534,0.41743 l -2.04837,0 c -0.27152,-1.35319 -1.46647,-2.3727 -2.89988,-2.3727 -1.63427,0 -2.95900001758,1.32473 -2.95900001758,2.9585 0,1.63427 1.32473001758,2.95907 2.95900001758,2.95907 1.43369,0 2.62865,-1.02037 2.90016,-2.37469 l 2.01248,0 c 0.005,0 0.0103,2.8e-4 0.0156,0 l 4.4512395,0 c 0.40278,0.0103 0.79465,0.17813 1.09378,0.41857 0,0 3.72859,3.93872 3.74013,3.95146 0.0299,0.0316 0.015,0.0152 2.8e-4,2.9e-4 0.52895,0.51004 1.36035,0.94489 2.15359,0.94489 l 2.82009,-6.4e-4 0,1.1878 3.54351,0 0,-3.54316 -3.54351,0 0,1.18625 c 0,0 -0.74276,-10e-4 -2.85464,-10e-4 -0.40392,-0.009 -0.79692,-0.17778 -1.09683,-0.41828 l -3.52646,-3.72562 13.67912,0 0,1.46173 3.5426,-2.04554 z"
     id="path1334"
     inkscape:connector-curvature="0" /></svg>